HIERARCHY
ROOT joint_0
{
	OFFSET 0.000000 0.000000 0.000000
	CHANNELS 6 Xposition Yposition Zposition Zrotation Yrotation Xrotation 
	JOINT joint_1
	{
		OFFSET 7.683380 1.521202 101.454956
		CHANNELS 3 Zrotation Yrotation Xrotation
		JOINT joint_2
		{
			OFFSET -4.816528 0.859650 92.807007
			CHANNELS 3 Zrotation Yrotation Xrotation
			JOINT joint_3
			{
				OFFSET -7.237778 1.114670 92.543091
				CHANNELS 3 Zrotation Yrotation Xrotation
				JOINT joint_4
				{
					OFFSET 0.479660 2.971886 127.844971
					CHANNELS 3 Zrotation Yrotation Xrotation
					JOINT joint_5
					{
						OFFSET 15.211349 9.937172 76.390015
						CHANNELS 3 Zrotation Yrotation Xrotation
						End Site
						{
							OFFSET 0.000000 0.000000 0.000000
						}
					}
				}
				JOINT joint_6
				{
					OFFSET 2.887054 -26.053230 72.331909
					CHANNELS 3 Zrotation Yrotation Xrotation
					JOINT joint_7
					{
						OFFSET 10.229767 -132.540291 -13.979004
						CHANNELS 3 Zrotation Yrotation Xrotation
						JOINT joint_8
						{
							OFFSET 17.695633 -10.988861 -262.204956
							CHANNELS 3 Zrotation Yrotation Xrotation
							JOINT joint_9
							{
								OFFSET 11.003433 -0.031860 -255.909973
								CHANNELS 3 Zrotation Yrotation Xrotation
								End Site
								{
									OFFSET 0.000000 0.000000 0.000000
								}
							}
						}
					}
				}
				JOINT joint_10
				{
					OFFSET -2.092239 29.348854 71.062988
					CHANNELS 3 Zrotation Yrotation Xrotation
					JOINT joint_11
					{
						OFFSET -11.853149 131.935837 -17.877075
						CHANNELS 3 Zrotation Yrotation Xrotation
						JOINT joint_12
						{
							OFFSET 14.084503 10.700203 -262.437012
							CHANNELS 3 Zrotation Yrotation Xrotation
							JOINT joint_13
							{
								OFFSET 48.202347 13.087273 -251.229919
								CHANNELS 3 Zrotation Yrotation Xrotation
								End Site
								{
									OFFSET 0.000000 0.000000 0.000000
								}
							}
						}
					}
				}
			}
		}
	}
	JOINT joint_14
	{
		OFFSET 4.150818 -83.296913 -102.580017
		CHANNELS 3 Zrotation Yrotation Xrotation
		JOINT joint_15
		{
			OFFSET -36.423187 -7.342392 -449.858948
			CHANNELS 3 Zrotation Yrotation Xrotation
			JOINT joint_16
			{
				OFFSET -41.100235 -7.280350 -426.202026
				CHANNELS 3 Zrotation Yrotation Xrotation
				JOINT joint_17
				{
					OFFSET 175.972961 13.159744 -75.358000
					CHANNELS 3 Zrotation Yrotation Xrotation
					End Site
					{
						OFFSET 0.000000 0.000000 0.000000
					}
				}
			}
		}
	}
	JOINT joint_18
	{
		OFFSET -9.062592 83.477568 -102.093018
		CHANNELS 3 Zrotation Yrotation Xrotation
		JOINT joint_19
		{
			OFFSET -39.145699 -6.092751 -449.645996
			CHANNELS 3 Zrotation Yrotation Xrotation
			JOINT joint_20
			{
				OFFSET -32.926178 -7.016375 -426.911980
				CHANNELS 3 Zrotation Yrotation Xrotation
				JOINT joint_21
				{
					OFFSET 176.289299 16.780729 -73.883997
					CHANNELS 3 Zrotation Yrotation Xrotation
					End Site
					{
						OFFSET 0.000000 0.000000 0.000000
					}
				}
			}
		}
	}
}
MOTION
Frames: 14
Frame Time: 0.016667
208.854813 -60.661583 1076.651978 7.195037 0.137699 2.004247 -1.954123 4.478734 -0.508992 -1.807041 -0.876493 -0.003080 -1.816422 0.955769 0.098273 -0.102531 -4.203847 3.264845 0.000000 0.000000 0.000000 -0.401652 3.001716 -4.003938 -0.453964 3.662784 4.002625 0.060533 -13.326826 2.042304 0.000000 0.000000 0.000000 1.665559 1.958989 4.065903 -0.875659 0.769210 -6.087204 -0.735455 0.489994 -3.876095 0.000000 0.000000 0.000000 -3.307804 -1.317594 -1.932353 -3.493841 4.557086 -0.749706 -3.330765 -1.844832 -1.283520 0.000000 0.000000 0.000000 -2.213372 -4.076342 1.532231 -2.012264 7.749883 -2.598147 -1.975760 -0.556283 -0.769986 0.000000 0.000000 0.000000 
221.053406 -60.502884 1077.801025 8.797790 0.609517 2.483534 -2.451560 5.001646 -1.014412 -2.248787 -0.893205 0.057128 -2.265524 1.003571 0.081643 0.063143 -5.671101 3.401093 0.000000 0.000000 0.000000 0.374561 3.653247 -4.478757 -0.694196 4.548682 4.993460 -0.073662 -20.144877 0.628271 0.000000 0.000000 0.000000 1.727626 2.882101 5.147800 -1.194609 1.565080 -6.612920 -1.220469 -2.857720 -5.267009 0.000000 0.000000 0.000000 -3.693024 -2.350359 -2.438044 -3.966740 7.201425 -0.765014 -3.715453 -2.767519 -1.373977 0.000000 0.000000 0.000000 -2.730065 -4.533707 1.434515 -2.496768 8.493312 -3.165760 -2.457987 -0.530810 -0.971523 0.000000 0.000000 0.000000 
233.517395 -59.469784 1079.213989 9.878488 1.383407 2.775683 -2.908507 5.436605 -1.169608 -2.689587 -0.798140 0.119769 -2.710353 0.955577 0.112958 0.240191 -7.101649 3.498340 0.000000 0.000000 0.000000 1.302425 3.887966 -4.740914 -0.983690 4.982439 5.539723 -0.266443 -28.373112 -1.634721 0.000000 0.000000 0.000000 1.589456 3.871984 6.107425 -1.499508 2.488574 -7.274360 -1.656949 -6.976268 -6.126312 0.000000 0.000000 0.000000 -3.870289 -4.692942 -2.967757 -4.266783 11.692465 -0.577285 -3.845974 -3.667805 -1.351030 0.000000 0.000000 0.000000 -3.104105 -5.485262 1.488150 -2.823148 9.695369 -3.703078 -2.765643 -0.485782 -1.099982 0.000000 0.000000 0.000000 
245.302444 -58.608509 1080.906006 10.538946 2.287147 2.772680 -3.109090 5.900443 -0.971655 -2.934757 -0.769542 0.096342 -2.954812 0.942741 0.160439 0.362213 -8.194744 3.653794 0.000000 0.000000 0.000000 1.879703 3.492794 -4.973534 -1.227169 4.706710 5.771251 -0.468987 -36.112891 -4.437111 0.000000 0.000000 0.000000 1.071160 4.469470 7.005322 -1.738339 3.115609 -7.856655 -1.989772 -10.597112 -6.685673 0.000000 0.000000 0.000000 -3.911302 -7.773452 -3.300937 -4.362447 17.162740 -0.357194 -3.685824 -4.353963 -1.214480 0.000000 0.000000 0.000000 -3.379207 -6.720328 1.798495 -3.005932 11.218378 -4.127058 -2.902004 -0.406946 -1.158070 0.000000 0.000000 0.000000 
255.297195 -58.713295 1083.099976 10.665467 3.414632 2.257397 -2.772107 6.455551 -0.287726 -2.746226 -0.935826 -0.086901 -2.763702 1.125319 0.172207 0.365833 -8.698491 3.946974 0.000000 0.000000 0.000000 1.579262 2.223192 -5.020657 -1.455240 3.412414 5.593146 -0.716373 -42.626771 -8.222580 0.000000 0.000000 0.000000 -0.207498 4.282810 8.098870 -1.876472 3.081468 -8.322914 -2.217553 -12.839374 -7.265605 0.000000 0.000000 0.000000 -3.808056 -11.789716 -3.123696 -4.123419 23.773720 -0.238368 -3.035717 -4.779439 -0.889645 0.000000 0.000000 0.000000 -3.564423 -8.345694 2.585645 -2.989862 13.011207 -4.361060 -2.797328 -0.254210 -1.121355 0.000000 0.000000 0.000000 
263.885193 -59.395706 1085.793945 10.275468 4.779239 1.445371 -1.973107 7.110813 0.443917 -2.219486 -1.176474 -0.161300 -2.261354 1.352890 0.154264 0.267140 -8.687531 4.378976 0.000000 0.000000 0.000000 0.583075 0.041568 -4.421785 -1.725074 1.019482 4.485571 -0.952833 -48.292129 -13.083018 0.000000 0.000000 0.000000 -2.184197 3.539442 9.546152 -1.930142 2.568241 -8.894260 -2.355844 -14.226091 -7.803151 0.000000 0.000000 0.000000 -3.747699 -16.835617 -2.670731 -3.564242 31.559444 -0.170764 -1.784706 -4.294842 -0.389904 0.000000 0.000000 0.000000 -3.723848 -10.383282 3.596313 -2.776427 15.076950 -4.403748 -2.436522 0.118559 -0.999121 0.000000 0.000000 0.000000 
273.028503 -60.131081 1088.021973 9.860400 5.588889 0.843140 -1.227127 7.674640 0.787286 -1.774741 -1.404283 -0.061351 -1.866200 1.443196 0.157389 0.142885 -8.491148 4.726629 0.000000 0.000000 0.000000 -0.228607 -2.445571 -4.032638 -2.053529 -1.639893 3.016967 -1.041586 -53.000522 -17.134870 0.000000 0.000000 0.000000 -3.860093 2.666668 10.936420 -1.908544 1.849738 -9.375959 -2.383479 -15.043748 -7.982345 0.000000 0.000000 0.000000 -4.016291 -20.812745 -2.365818 -3.157599 37.825761 -0.249902 -0.713217 -3.246782 -0.022221 0.000000 0.000000 0.000000 -3.912833 -11.877879 4.319999 -2.556535 17.299032 -4.405459 -2.026002 0.523831 -0.862521 0.000000 0.000000 0.000000 
284.200073 -60.498238 1089.128052 9.367752 5.427130 0.522515 -0.837318 7.627885 1.023953 -1.552265 -1.540980 -0.056137 -1.663433 1.481486 0.222479 0.060162 -8.347001 4.742363 0.000000 0.000000 0.000000 -0.154939 -5.028637 -4.274036 -2.571728 -4.113580 1.419765 -0.946565 -56.996114 -19.337171 0.000000 0.000000 0.000000 -4.602334 1.790504 11.566685 -1.765808 0.986156 -9.261533 -2.244867 -15.074525 -7.462913 0.000000 0.000000 0.000000 -4.395997 -22.621387 -2.259375 -3.183720 41.164841 -0.634024 -0.744259 -3.097178 -0.030049 0.000000 0.000000 0.000000 -3.939472 -12.251156 4.681113 -2.367859 19.650612 -4.488438 -1.644588 0.694231 -0.720091 0.000000 0.000000 0.000000 
296.666260 -60.681034 1089.483032 8.531242 4.623782 0.231972 -0.625948 6.962649 1.442479 -1.364468 -1.527994 -0.206802 -1.448042 1.473738 0.312910 -0.006936 -8.102429 4.477538 0.000000 0.000000 0.000000 0.531002 -8.249218 -3.964386 -3.346953 -6.838498 -1.488521 -0.480047 -59.906036 -20.149777 0.000000 0.000000 0.000000 -4.772617 0.703118 11.319251 -1.526382 -0.114952 -8.377697 -1.956632 -14.053800 -6.340783 0.000000 0.000000 0.000000 -4.678515 -23.170118 -2.115359 -3.435204 42.766985 -1.276467 -1.642455 -3.961885 -0.298220 0.000000 0.000000 0.000000 -3.739157 -11.880706 4.951059 -2.116287 22.159238 -4.621649 -1.208133 0.754923 -0.549047 0.000000 0.000000 0.000000 
309.561188 -61.118694 1089.149048 8.008977 3.611000 0.101076 -0.660847 6.042547 1.701520 -1.317893 -1.393940 -0.324668 -1.356793 1.376470 0.355843 -0.071130 -7.969597 4.188317 0.000000 0.000000 0.000000 1.050762 -11.468022 -3.243821 -4.034439 -8.827670 -4.843819 0.207473 -62.299785 -19.313542 0.000000 0.000000 0.000000 -4.582589 -0.282228 10.822319 -1.307235 -1.123068 -7.413991 -1.676516 -13.337321 -5.034540 0.000000 0.000000 0.000000 -4.856630 -23.063604 -2.140902 -3.724795 43.794118 -1.740541 -2.534899 -4.545583 -0.584743 0.000000 0.000000 0.000000 -3.600123 -11.355950 5.157112 -1.973765 24.743940 -4.906180 -0.874530 0.879866 -0.427751 0.000000 0.000000 0.000000 
322.472412 -62.082123 1088.089966 8.393207 2.547200 0.256798 -1.011660 5.142422 1.430554 -1.556411 -1.235904 -0.315472 -1.573518 1.253640 0.356795 -0.159616 -8.201982 4.196655 0.000000 0.000000 0.000000 0.586776 -13.699076 -3.750566 -4.275166 -8.949829 -6.288519 0.317235 -65.944089 -16.599435 0.000000 0.000000 0.000000 -4.141995 -0.903523 10.783357 -1.135339 -1.941885 -7.176013 -1.485338 -14.003625 -3.754326 0.000000 0.000000 0.000000 -4.970730 -22.623947 -2.590043 -3.950553 45.179333 -1.651417 -2.779706 -3.672703 -0.724635 0.000000 0.000000 0.000000 -3.751593 -10.958200 5.202148 -2.101148 27.395892 -5.325254 -0.738314 1.125890 -0.396958 0.000000 0.000000 0.000000 
335.712921 -63.411373 1086.293945 9.394216 1.265631 0.613300 -1.632760 4.081864 0.734878 -2.021868 -0.875777 -0.222706 -2.015863 0.942272 0.331571 -0.273551 -8.649325 4.434357 0.000000 0.000000 0.000000 -0.427123 -14.993522 -5.854780 -4.269218 -7.636593 -5.847465 -0.627774 -71.026795 -11.864876 0.000000 0.000000 0.000000 -3.373238 -1.221910 10.876995 -0.938543 -2.766410 -7.347624 -1.332436 -15.466830 -2.365661 0.000000 0.000000 0.000000 -5.022008 -21.638866 -3.371232 -4.197330 46.500407 -1.146999 -2.631137 -1.775882 -0.787400 0.000000 0.000000 0.000000 -4.080757 -10.462237 5.088412 -2.432437 30.139882 -5.813311 -0.713674 1.461811 -0.419036 0.000000 0.000000 0.000000 
348.712494 -65.139679 1084.016968 10.403195 0.298010 0.926949 -2.241058 2.755127 -0.063773 -2.414436 -0.368122 -0.074364 -2.361694 0.465822 0.256470 -0.369573 -8.954513 4.619286 0.000000 0.000000 0.000000 -0.828907 -15.864097 -8.126031 -4.332273 -6.317824 -5.266088 -2.331876 -75.720674 -7.269377 0.000000 0.000000 0.000000 -2.598987 -1.144354 10.972661 -0.730421 -3.432362 -7.586299 -1.260537 -17.617694 -1.065161 0.000000 0.000000 0.000000 -4.962580 -20.184254 -3.965583 -4.501752 46.799764 -0.685466 -2.555850 -0.223557 -0.861500 0.000000 0.000000 0.000000 -4.518488 -10.359742 5.256935 -2.859323 32.892980 -6.633485 -0.838208 1.922469 -0.512109 0.000000 0.000000 0.000000 
361.288177 -67.370758 1081.256958 11.082420 0.103906 1.068585 -2.616566 0.978076 -0.683505 -2.582197 0.093654 -0.011403 -2.457613 0.012614 0.163500 -0.415281 -8.916171 4.613272 0.000000 0.000000 0.000000 -0.033655 -16.690785 -9.388630 -4.330083 -5.525516 -5.610821 -4.279716 -79.142624 -4.979430 0.000000 0.000000 0.000000 -1.991334 -0.547796 11.235855 -0.582018 -3.676313 -7.884920 -1.327338 -20.830276 0.030021 0.000000 0.000000 0.000000 -4.785289 -18.097967 -3.942811 -4.895592 45.065950 -0.664811 -3.000863 -0.195880 -1.040229 0.000000 0.000000 0.000000 -5.000690 -11.068529 6.048504 -3.328397 35.560668 -8.022677 -1.233785 2.588275 -0.731430 0.000000 0.000000 0.000000 
